<svg width="16" height="16" viewBox="0 0 16 16" fill="none" xmlns="http://www.w3.org/2000/svg">
<path d="M11.6689 0H4.33105C1.94287 0 0 1.94287 0 4.33105V11.6691C0 14.0571 1.94287 16 4.33105 16H11.6691C14.0571 16 16 14.0571 16 11.6691V4.33105C16 1.94287 14.0571 0 11.6689 0V0ZM8 12.3749C5.58765 12.3749 3.62512 10.4124 3.62512 8C3.62512 5.58765 5.58765 3.62512 8 3.62512C10.4124 3.62512 12.3749 5.58765 12.3749 8C12.3749 10.4124 10.4124 12.3749 8 12.3749ZM12.4795 4.65686C11.7666 4.65686 11.1868 4.07703 11.1868 3.36414C11.1868 2.65125 11.7666 2.07129 12.4795 2.07129C13.1924 2.07129 13.7723 2.65125 13.7723 3.36414C13.7723 4.07703 13.1924 4.65686 12.4795 4.65686Z" fill="black"/>
<path d="M7.99997 5.09088C6.39597 5.09088 5.09088 6.39587 5.09088 7.99997C5.09088 9.60398 6.39597 10.9091 7.99997 10.9091C9.60408 10.9091 10.9091 9.60398 10.9091 7.99997C10.9091 6.39587 9.60408 5.09088 7.99997 5.09088Z" fill="black"/>
<path d="M12.4794 3.0094C12.2839 3.0094 12.1247 3.16858 12.1247 3.36414C12.1247 3.55969 12.2839 3.71887 12.4794 3.71887C12.6751 3.71887 12.8343 3.55981 12.8343 3.36414C12.8343 3.16846 12.6751 3.0094 12.4794 3.0094Z" fill="black"/>
</svg>
